<svg width="39" height="40" viewBox="0 0 39 40" fill="none" xmlns="http://www.w3.org/2000/svg">
<path d="M19.4996 2.66699C10.1812 2.66699 2.59961 10.443 2.59961 20.0003C2.59961 29.5577 10.1812 37.3337 19.4996 37.3337C28.818 37.3337 36.3996 29.5577 36.3996 20.0003C36.3996 10.443 28.818 2.66699 19.4996 2.66699ZM15.1654 8.00033H23.8312C27.8937 8.00033 31.1996 11.3897 31.1996 15.555V24.443C31.1996 28.6097 27.895 32.0003 23.8338 32.0003H15.168C11.1055 32.0003 7.79961 28.611 7.79961 24.4456V15.5576C7.79961 11.3909 11.1042 8.00033 15.1654 8.00033ZM15.1654 10.667C12.5381 10.667 10.3996 12.8616 10.3996 15.5576V24.4456C10.3996 27.1403 12.5394 29.3337 15.168 29.3337H23.8338C26.4611 29.3337 28.5996 27.139 28.5996 24.443V15.555C28.5996 12.8603 26.4598 10.667 23.8312 10.667H15.1654ZM25.568 12.8883C26.0464 12.8883 26.4338 13.2857 26.4338 13.7764C26.4338 14.267 26.0464 14.667 25.568 14.667C25.0896 14.667 24.6996 14.267 24.6996 13.7764C24.6996 13.2857 25.0896 12.8883 25.568 12.8883ZM19.4996 13.3337C23.0837 13.3337 25.9996 16.3243 25.9996 20.0003C25.9996 23.6763 23.0837 26.667 19.4996 26.667C15.9155 26.667 12.9996 23.6763 12.9996 20.0003C12.9996 16.3243 15.9155 13.3337 19.4996 13.3337ZM19.4996 16.0003C18.4653 16.0003 17.4733 16.4218 16.7419 17.1719C16.0105 17.922 15.5996 18.9395 15.5996 20.0003C15.5996 21.0612 16.0105 22.0786 16.7419 22.8288C17.4733 23.5789 18.4653 24.0003 19.4996 24.0003C20.534 24.0003 21.5259 23.5789 22.2573 22.8288C22.9887 22.0786 23.3996 21.0612 23.3996 20.0003C23.3996 18.9395 22.9887 17.922 22.2573 17.1719C21.5259 16.4218 20.534 16.0003 19.4996 16.0003Z" fill="white"/>
</svg>
